<!-- icon666.com - MILLIONS vector ICONS FREE --><svg viewBox="0 0 64 64" xmlns="http://www.w3.org/2000/svg"><g id="Layer_33" data-name="Layer 33"><path d="m47.2 50.5a1.89 1.89 0 0 1 -1.89-1.89v-25.18h-25.26l4.34 4.34a1.88 1.88 0 0 1 .55 1.33 1.93 1.93 0 0 1 -.55 1.34 1.9 1.9 0 0 1 -2.67 0l-8.53-8.54a.5.5 0 0 1 0-.71l8.53-8.53a1.88 1.88 0 1 1 2.67 2.66l-4.34 4.34h28.54a.5.5 0 0 1 .5.5v28.45a1.89 1.89 0 0 1 -1.89 1.89zm-28.35-28.07h27a.5.5 0 0 1 .5.5v25.68a.89.89 0 0 0 1.78 0v-27.95h-29.28a.5.5 0 0 1 -.36-.85l5.19-5.19a.89.89 0 0 0 0-1.26.89.89 0 0 0 -1.25 0l-8.18 8.19 8.18 8.18a.89.89 0 0 0 1.25 0 .89.89 0 0 0 0-1.26l-5.19-5.18a.51.51 0 0 1 -.1-.55.49.49 0 0 1 .46-.31z"></path><path d="m32 60.5a28.5 28.5 0 1 1 28.5-28.5 28.54 28.54 0 0 1 -28.5 28.5zm0-56a27.5 27.5 0 1 0 27.5 27.5 27.54 27.54 0 0 0 -27.5-27.5z"></path></g></svg>